<?xml version="1.0" standalone="no"?>
<!DOCTYPE svg PUBLIC "-//W3C//DTD SVG 20010904//EN"
 "http://www.w3.org/TR/2001/REC-SVG-20010904/DTD/svg10.dtd">
<svg version="1.0" xmlns="http://www.w3.org/2000/svg"
 width="150.000000pt" height="150.000000pt" viewBox="0 0 150.000000 150.000000"
 preserveAspectRatio="xMidYMid meet">
<metadata>
Created by potrace 1.14, written by Peter Selinger 2001-2017
</metadata>
<g transform="translate(0.000000,150.000000) scale(0.100000,-0.100000)"
fill="#000000" stroke="none">
<path d="M699 1479 c-104 -9 -171 -26 -256 -64 -213 -98 -360 -276 -419 -510
-23 -93 -21 -246 5 -346 68 -262 257 -457 518 -533 70 -20 100 -23 210 -21
138 2 160 6 241 35 162 60 275 150 373 298 139 210 157 489 48 720 -18 37 -36
69 -41 70 -4 2 -8 9 -8 15 0 11 -88 117 -125 150 -65 59 -227 147 -300 164
-86 19 -181 28 -246 22z"/>
</g>
</svg>
